<?xml version="1.0" standalone="no"?>
<!DOCTYPE svg PUBLIC "-//W3C//DTD SVG 20010904//EN"
 "http://www.w3.org/TR/2001/REC-SVG-20010904/DTD/svg10.dtd">
<svg version="1.0" xmlns="http://www.w3.org/2000/svg"
 width="760.000000pt" height="760.000000pt" viewBox="0 0 760.000000 760.000000"
 preserveAspectRatio="xMidYMid meet">
<metadata>
Created by potrace 1.11, written by Peter Selinger 2001-2013
</metadata>
<g transform="translate(0.000000,760.000000) scale(0.100000,-0.100000)"
fill="#000000" stroke="none">
<path d="M0 3800 l0 -3800 3800 0 3800 0 0 3800 0 3800 -3800 0 -3800 0 0
-3800z m3460 1270 l0 -220 51 39 c171 130 423 74 540 -119 126 -207 99 -540
-56 -695 -135 -137 -350 -151 -505 -33 l-50 38 0 -45 0 -45 -65 0 -65 0 0 650
0 650 75 0 75 0 0 -220z m-1710 176 c120 -38 201 -96 261 -189 33 -50 79 -166
79 -197 0 -9 -87 -30 -125 -30 -20 0 -26 7 -36 42 -45 169 -167 259 -332 245
-163 -14 -278 -126 -323 -314 -24 -99 -21 -286 5 -386 46 -177 138 -277 281
-306 62 -12 152 -3 212 22 93 39 164 145 175 262 l6 65 -157 0 -156 0 0 70 0
70 230 0 230 0 0 -107 c0 -183 -43 -303 -143 -403 -62 -61 -127 -95 -222 -115
-88 -18 -132 -18 -220 0 -100 21 -171 60 -240 129 -70 71 -115 150 -147 261
-20 70 -23 102 -23 255 1 163 3 180 28 255 64 190 172 306 337 362 77 27 210
31 280 9z m1038 -300 c107 -29 172 -87 210 -188 14 -36 17 -101 20 -405 l3
-363 -65 0 -66 0 0 50 0 51 -36 -35 c-75 -73 -199 -106 -325 -87 -81 13 -133
37 -178 82 -55 55 -66 85 -66 185 0 82 3 94 28 132 52 80 123 116 329 173 177
48 218 77 218 155 0 74 -55 120 -158 130 -122 13 -220 -44 -251 -145 l-11 -39
-63 17 c-60 18 -62 19 -59 50 5 68 80 169 154 207 83 43 218 56 316 30z m2137
-30 c48 -24 88 -53 114 -82 75 -85 121 -216 121 -343 l0 -71 -351 0 -352 0 6
-54 c8 -80 42 -150 98 -200 60 -54 115 -70 212 -64 107 7 164 42 229 140 l24
37 49 -31 c73 -44 72 -42 32 -101 -149 -216 -474 -247 -658 -63 -178 177 -187
548 -18 740 86 97 189 138 332 132 77 -3 97 -8 162 -40z m165 -1876 l0 -650
-75 0 -75 0 0 650 0 650 75 0 75 0 0 -650z m450 0 l0 -650 -75 0 -75 0 0 650
0 650 75 0 75 0 0 -650z m-3819 593 c66 -30 114 -76 149 -145 40 -81 40 -104
-2 -111 -18 -3 -47 -9 -64 -12 -29 -6 -31 -4 -47 37 -43 112 -170 160 -277
106 -60 -31 -90 -77 -90 -141 0 -81 26 -113 255 -315 l210 -184 3 111 3 111
64 0 65 0 0 -169 0 -169 115 -97 c128 -110 123 -91 53 -174 l-28 -32 -82 70
c-46 39 -86 71 -89 71 -3 0 -11 -11 -17 -25 -18 -38 -89 -111 -135 -139 -70
-40 -152 -59 -257 -59 -260 0 -431 137 -432 347 0 151 60 265 196 372 l39 30
-42 55 c-133 174 -70 399 131 471 71 25 213 21 279 -9z m1281 -297 l3 -305
253 305 252 304 91 0 c50 0 89 -3 87 -8 -1 -4 -103 -128 -226 -274 l-223 -267
243 -338 c134 -186 247 -344 252 -350 5 -10 -13 -13 -81 -13 l-89 0 -213 296
c-117 163 -216 292 -220 287 -4 -4 -35 -40 -69 -79 l-62 -72 0 -216 0 -216
-75 0 -75 0 0 625 0 625 75 0 75 0 2 -304z m1390 9 c72 -18 148 -65 193 -118
70 -81 115 -213 115 -336 l0 -71 -351 0 -352 0 6 -54 c8 -80 42 -150 98 -200
60 -54 115 -70 212 -64 107 7 164 42 229 140 l24 37 49 -31 c73 -44 72 -42 32
-101 -149 -216 -474 -247 -658 -63 -178 177 -187 548 -18 740 102 115 264 162
421 121z m1621 -337 c72 -175 133 -315 136 -312 3 3 58 146 121 317 l115 312
77 3 77 3 -23 -63 c-13 -35 -126 -333 -251 -663 -124 -330 -230 -604 -234
-608 -4 -4 -38 -7 -74 -5 l-65 3 93 247 94 247 -174 416 c-96 228 -175 417
-175 420 0 3 35 5 77 3 l76 -3 130 -317z"/>
<path d="M3643 4819 c-73 -14 -137 -69 -168 -143 -22 -52 -21 -391 0 -444 35
-82 118 -132 221 -132 121 0 196 45 245 148 30 61 33 78 37 182 9 232 -59 355
-211 387 -69 14 -66 14 -124 2z"/>
<path d="M2862 4513 c-3 -17 -93 -56 -212 -93 -58 -18 -121 -41 -142 -51 -75
-38 -103 -107 -73 -185 23 -61 71 -85 169 -86 89 0 141 14 193 51 65 47 74 78
70 238 -1 76 -4 133 -5 126z"/>
<path d="M4663 4816 c-109 -35 -178 -117 -199 -238 l-6 -38 281 0 c154 0 281
2 281 5 0 23 -26 118 -41 146 -21 42 -80 96 -123 114 -50 21 -146 26 -193 11z"/>
<path d="M1429 3013 c-160 -107 -217 -300 -122 -414 78 -92 288 -123 411 -60
64 33 141 138 116 160 -17 15 -349 304 -365 318 -13 10 -19 10 -40 -4z"/>
<path d="M4203 3216 c-109 -35 -178 -117 -199 -238 l-6 -38 281 0 c154 0 281
2 281 5 0 23 -26 118 -41 146 -21 42 -80 96 -123 114 -50 21 -146 26 -193 11z"/>
</g>
</svg>
